HIERARCHY
ROOT Hips
{
	OFFSET 0.000000 0.000000 0.000000
	CHANNELS 6 Xposition Yposition Zposition Xrotation Yrotation Zrotation
	JOINT LeftUpLeg_virtual
	{
		OFFSET 0.000000 0.000000 0.000000
		CHANNELS 3 Xrotation Yrotation Zrotation
		JOINT LeftUpLeg
		{
			OFFSET 13.026900 -6.336304 -1.092800
			CHANNELS 3 Xrotation Yrotation Zrotation
			JOINT LeftLeg
			{
				OFFSET 0.524474 -46.096886 9.782700
				CHANNELS 3 Xrotation Yrotation Zrotation
				JOINT LeftFoot
				{
					OFFSET -0.524474 -53.427422 -12.948200
					CHANNELS 3 Xrotation Yrotation Zrotation
					JOINT LeftToeBase
					{
						OFFSET 0.192200 -14.009700 16.364100
						CHANNELS 3 Xrotation Yrotation Zrotation
						JOINT LeftToe_End
						{
							OFFSET -1.784700 -0.561700 9.474800
							CHANNELS 3 Xrotation Yrotation Zrotation
							End Site
							{
								OFFSET 0 0 0
							}
						}
					}
				}
			}
		}
	}
	JOINT RightUpLeg_virtual
	{
		OFFSET 0.000000 0.000000 0.000000
		CHANNELS 3 Xrotation Yrotation Zrotation
		JOINT RightUpLeg
		{
			OFFSET -12.883000 -6.336304 -1.092800
			CHANNELS 3 Xrotation Yrotation Zrotation
			JOINT RightLeg
			{
				OFFSET -0.524587 -46.096825 9.782800
				CHANNELS 3 Xrotation Yrotation Zrotation
				JOINT RightFoot
				{
					OFFSET 0.524587 -53.427383 -12.948300
					CHANNELS 3 Xrotation Yrotation Zrotation
					JOINT RightToeBase
					{
						OFFSET -0.192200 -14.009700 16.364100
						CHANNELS 3 Xrotation Yrotation Zrotation
						JOINT RightToe_End
						{
							OFFSET 1.784700 -0.561700 9.474800
							CHANNELS 3 Xrotation Yrotation Zrotation
							End Site
							{
								OFFSET 0 0 0
							}
						}
					}
				}
			}
		}
	}
	JOINT Spine_virtual
	{
		OFFSET 0.000000 0.000000 0.000000
		CHANNELS 3 Xrotation Yrotation Zrotation
		JOINT Spine
		{
			OFFSET 0.072000 7.257294 -0.789700
			CHANNELS 3 Xrotation Yrotation Zrotation
			JOINT Spine1
			{
				OFFSET 0.000000 12.508769 -0.658067
				CHANNELS 3 Xrotation Yrotation Zrotation
				JOINT Spine1_split
				{
					OFFSET 0.000000 12.508769 -0.658067
					CHANNELS 3 Xrotation Yrotation Zrotation
					JOINT Spine2
					{
						OFFSET 0.000000 12.508769 -0.658067
						CHANNELS 3 Xrotation Yrotation Zrotation
						JOINT Neck_virtual
						{
							OFFSET 0.000000 0.000000 0.000000
							CHANNELS 3 Xrotation Yrotation Zrotation
							JOINT Neck
							{
								OFFSET 0.000000 14.033295 7.520400
								CHANNELS 3 Xrotation Yrotation Zrotation
								JOINT Head
								{
									OFFSET 0.000000 8.198502 5.703100
									CHANNELS 3 Xrotation Yrotation Zrotation
									JOINT HeadTop_End
									{
										OFFSET 0.000000 17.760803 13.332701
										CHANNELS 3 Xrotation Yrotation Zrotation
										End Site
										{
											OFFSET 0 0 0
										}
									}
								}
							}
						}
						JOINT LeftShoulder_virtual
						{
							OFFSET 0.000000 0.000000 0.000000
							CHANNELS 3 Xrotation Yrotation Zrotation
							JOINT LeftShoulder
							{
								OFFSET 6.292450 5.785301 -0.669000
								CHANNELS 3 Xrotation Yrotation Zrotation
								JOINT LeftShoulder_split
								{
									OFFSET 6.292450 5.785301 -0.669000
									CHANNELS 3 Xrotation Yrotation Zrotation
									JOINT LeftArm
									{
										OFFSET 13.907140 -6.093903 1.965100
										CHANNELS 3 Xrotation Yrotation Zrotation
										JOINT LeftForeArm
										{
											OFFSET 34.140198 0.000000 0.000000
											CHANNELS 3 Xrotation Yrotation Zrotation
											JOINT LeftHand
											{
												OFFSET 40.960209 0.000000 0.000000
												CHANNELS 3 Xrotation Yrotation Zrotation
												End Site
												{
													OFFSET 0 0 0
												}
											}
										}
									}
								}
							}
						}
						JOINT RightShoulder_virtual
						{
							OFFSET 0.000000 0.000000 0.000000
							CHANNELS 3 Xrotation Yrotation Zrotation
							JOINT RightShoulder
							{
								OFFSET -6.292450 5.785301 -0.669000
								CHANNELS 3 Xrotation Yrotation Zrotation
								JOINT RightShoulder_split
								{
									OFFSET -6.292450 5.785301 -0.669000
									CHANNELS 3 Xrotation Yrotation Zrotation
									JOINT RightArm
									{
										OFFSET -13.907140 -6.093903 1.965100
										CHANNELS 3 Xrotation Yrotation Zrotation
										JOINT RightForeArm
										{
											OFFSET -34.140198 0.000000 0.000000
											CHANNELS 3 Xrotation Yrotation Zrotation
											JOINT RightHand
											{
												OFFSET -40.960209 0.000000 0.000000
												CHANNELS 3 Xrotation Yrotation Zrotation
												End Site
												{
													OFFSET 0 0 0
												}
											}
										}
									}
								}
							}
						}
					}
				}
			}
		}
	}
}
MOTION
Frames: 8
Frame Time: 0.03333333
13.081176 94.564186 86.298271 0.000000 0.000000 0.000000 162.479955 49.494857 -175.612688 -63.768265 -4.734371 20.126687 24.883585 -33.200802 3.532770 14.107513 -2.233726 -19.583088 1.294806 1.554085 -4.917833 0.000000 0.000000 0.000000 165.159793 42.735059 179.869439 -10.338039 -30.009577 -21.791505 32.020624 -0.947827 3.123810 -15.170417 -7.578050 21.469149 3.363036 0.333593 0.204985 0.000000 0.000000 0.000000 163.819533 48.752955 -177.318896 16.720602 4.515327 -1.363918 10.832222 13.653448 -12.210234 0.523030 -5.546822 1.478129 0.000000 0.000000 0.000000 3.404090 13.054318 -10.365006 5.350998 4.304993 5.904798 -4.129253 8.743818 -7.780840 0.000000 0.000000 0.000000 2.523607 13.715197 -11.167229 0.823800 19.350262 -5.104943 -6.165477 -1.703111 -0.050874 21.984069 32.659130 -67.084294 -56.597178 -27.524795 -29.465829 0.000000 0.000000 0.000000 2.233210 12.921966 -11.096248 5.712609 14.501926 1.772879 -7.623493 -2.557992 0.288423 -56.155572 31.488053 69.789609 35.346000 30.739570 -0.093376 0.000000 0.000000 0.000000 
12.763552 95.240417 84.207253 0.000000 0.000000 0.000000 161.409514 54.621583 -174.562450 -61.385089 -5.927790 22.719661 30.832468 -32.310664 3.972148 9.856757 -1.068120 -18.541090 1.661911 1.418542 -5.051052 0.000000 0.000000 0.000000 164.358749 47.523486 -179.159755 -16.206203 -27.408678 -23.572994 33.673697 0.570200 2.627304 -11.172689 -5.679956 20.928623 1.714375 0.510661 0.305241 0.000000 0.000000 0.000000 162.496416 53.814350 -176.214660 16.505714 4.643897 -0.639220 10.426889 13.051957 -12.295784 0.315027 -5.627614 1.588371 0.000000 0.000000 0.000000 3.151538 12.403831 -10.408945 4.094168 4.739852 5.092931 -2.990599 8.098708 -7.421678 0.000000 0.000000 0.000000 2.183186 13.086490 -11.226082 1.288539 17.911804 -7.837860 -6.298500 -1.165295 0.829602 16.803847 30.053700 -60.220951 -51.449961 -29.494143 -29.168890 0.000000 0.000000 0.000000 1.884140 12.254217 -11.136325 5.585699 13.710426 2.202841 -9.210973 -1.878218 0.498234 -48.684704 28.498199 67.100004 35.348100 38.071389 -0.792480 0.000000 0.000000 0.000000 
12.263529 95.389030 82.033340 0.000000 0.000000 0.000000 160.149344 59.714896 -173.305163 -58.486732 -7.485244 25.046338 37.741003 -30.982694 4.635557 5.273115 0.201965 -18.119766 2.010892 1.380848 -4.954492 0.000000 0.000000 0.000000 163.291067 52.591350 -177.785084 -21.862500 -23.834468 -24.948410 35.255913 2.267418 1.882373 -7.092048 -3.685972 21.885591 -0.554675 0.504324 0.677823 0.000000 0.000000 0.000000 161.123165 59.228948 -175.088074 16.298773 4.579565 -0.278814 9.850590 12.234532 -12.345959 0.210861 -5.413120 1.567323 0.000000 0.000000 0.000000 2.797333 11.652088 -10.453560 2.821412 5.076758 5.136732 -2.224312 7.418318 -6.504223 0.000000 0.000000 0.000000 1.631287 12.342004 -11.225574 1.504145 15.635374 -10.226701 -6.576469 -0.796438 1.496039 10.902664 26.865695 -51.619363 -45.325695 -31.565081 -28.255991 0.000000 0.000000 0.000000 1.220198 11.436275 -11.087602 5.326250 12.285215 2.628531 -10.810322 -1.077217 -0.030572 -41.064849 24.393794 62.890729 35.176424 48.626456 -1.356960 0.000000 0.000000 0.000000 
11.651374 95.153198 79.560638 0.000000 0.000000 0.000000 158.192618 64.518459 -171.151290 -55.158784 -8.958742 26.821405 44.030842 -28.814417 5.065511 0.502263 1.711169 -17.804789 1.732357 1.452043 -4.561096 0.000000 0.000000 0.000000 161.609461 57.842434 -175.582047 -26.561518 -19.714241 -25.530492 36.807381 3.877657 0.929981 -4.319931 -2.085486 23.459263 -2.426302 0.344581 1.313623 0.000000 0.000000 0.000000 159.352808 64.751354 -173.398012 16.100293 4.215285 -0.269534 9.067266 11.167510 -12.342586 0.317717 -4.799209 1.676423 0.000000 0.000000 0.000000 2.332927 10.746533 -10.493448 1.700384 5.239941 5.738287 -2.386569 6.519260 -5.016284 0.000000 0.000000 0.000000 0.789249 11.447742 -11.155231 1.401941 12.801129 -11.700999 -6.740526 -0.458385 1.972841 4.280307 22.738262 -42.167204 -38.059105 -33.624728 -26.250683 0.000000 0.000000 0.000000 0.257895 10.451091 -10.968499 4.979943 10.344439 2.932363 -11.875343 0.231844 -1.037195 -34.501901 19.086537 57.855192 34.433367 61.658372 -1.403621 0.000000 0.000000 0.000000 
11.077413 95.060577 76.861946 0.000000 0.000000 0.000000 154.352317 69.153043 -166.821988 -51.755502 -9.953998 27.972073 48.656314 -25.924273 5.013747 -4.183683 3.127406 -17.197902 0.833683 1.596787 -4.029870 0.000000 0.000000 0.000000 158.683599 63.334377 -171.976186 -29.858107 -15.697885 -25.264315 38.271261 4.868016 -0.054627 -3.927529 -1.578246 24.055870 -2.222798 0.122297 2.275570 0.000000 0.000000 0.000000 156.397194 70.040967 -170.190392 15.855681 3.533727 -0.510167 8.105427 9.875064 -12.248880 0.443974 -4.374559 1.671609 0.000000 0.000000 0.000000 1.697561 9.625966 -10.490044 0.903885 5.266505 6.498706 -3.599847 5.240009 -3.104429 0.000000 0.000000 0.000000 -0.261181 10.335781 -10.993577 1.043682 9.740251 -12.073875 -6.984909 -0.347202 2.010674 -2.158904 17.232323 -33.112959 -29.064897 -35.069603 -22.363042 0.000000 0.000000 0.000000 -0.901588 9.238212 -10.799729 4.548041 8.019235 3.053115 -12.164582 1.550217 -2.376779 -29.549625 13.207685 52.790744 31.763177 75.650765 0.318158 0.000000 0.000000 0.000000 
10.463930 95.510262 73.723862 0.000000 0.000000 0.000000 146.826787 73.619406 -158.604656 -48.688901 -10.225217 28.421554 51.582743 -22.445484 4.471333 -8.433436 4.120822 -16.140352 -0.217484 1.758787 -3.560377 0.000000 0.000000 0.000000 153.696851 68.723014 -166.292375 -32.081037 -12.335115 -24.395416 39.131721 4.754549 -0.853965 -5.707594 -2.468739 22.941005 0.475607 -0.040238 3.506960 0.000000 0.000000 0.000000 150.442389 75.024492 -163.693816 15.446012 2.558619 -0.871673 7.011506 8.361087 -11.997549 0.603743 -3.735519 1.326837 0.000000 0.000000 0.000000 0.884930 8.286590 -10.400877 0.611955 5.279045 7.011962 -5.661619 3.596199 -1.052928 0.000000 0.000000 0.000000 -1.393013 8.975326 -10.729533 0.566300 6.577300 -11.437374 -6.867143 -0.502043 1.564336 -7.508974 10.119920 -25.823608 -18.617451 -34.860606 -16.615998 0.000000 0.000000 0.000000 -2.033133 7.787753 -10.567051 4.140348 5.584758 2.994253 -11.895784 1.811724 -3.672789 -25.914428 7.759296 48.225271 -17.557105 88.525672 48.583262 0.000000 0.000000 0.000000 
9.718340 96.563103 69.870224 0.000000 0.000000 0.000000 132.264469 77.653623 -143.227332 -46.220641 -9.667702 28.056436 53.334714 -18.437211 3.595398 -12.255271 4.731968 -14.196803 -0.774600 1.877503 -3.380496 0.000000 0.000000 0.000000 144.915140 73.917059 -156.845787 -33.239450 -9.920716 -23.086985 38.876610 3.658836 -1.320088 -8.286260 -4.070412 20.751030 3.666208 -0.123802 4.762682 0.000000 0.000000 0.000000 137.430878 79.367140 -149.900563 14.944217 1.451690 -1.214494 5.943356 6.753029 -11.554544 0.716340 -3.079881 0.855523 0.000000 0.000000 0.000000 -0.010336 6.806867 -10.137951 0.936369 5.391259 6.983300 -8.096254 1.858785 0.789721 0.000000 0.000000 0.000000 -2.402266 7.395658 -10.326442 0.106393 3.666564 -10.215589 -6.167711 -0.757065 0.978052 -11.747306 1.568875 -21.162612 -8.050871 -32.850659 -10.160387 0.000000 0.000000 0.000000 -2.993298 6.224322 -10.195008 3.792038 3.477139 2.898066 -10.808108 0.845731 -4.543303 -23.209782 3.475929 44.605964 -138.537533 79.641454 168.376184 0.000000 0.000000 0.000000 
8.836439 98.328758 65.370667 0.000000 0.000000 0.000000 105.376732 80.328762 -115.467626 -44.217309 -8.094935 26.941203 54.389411 -13.955611 2.555277 -15.404348 5.071070 -11.896758 -0.637209 1.975241 -3.504541 0.000000 0.000000 0.000000 127.937981 78.484966 -139.222464 -33.271129 -8.657640 -21.555447 37.333657 1.973142 -1.541703 -10.000752 -5.544532 18.843821 5.179016 -0.254737 5.812887 0.000000 0.000000 0.000000 108.313707 82.397435 -119.912550 14.347241 0.401555 -1.434844 5.054000 5.186597 -10.903119 0.971789 -2.618881 0.376197 0.000000 0.000000 0.000000 -0.902041 5.328286 -9.647360 1.859855 5.618481 6.398543 -10.308331 0.376809 2.230581 0.000000 0.000000 0.000000 -3.167387 5.745686 -9.747011 -0.304977 1.225678 -8.659636 -5.312811 -0.705597 0.120646 -15.313081 -7.535787 -19.314156 0.878911 -29.997095 -4.391290 0.000000 0.000000 0.000000 -3.685673 4.679141 -9.639515 3.552280 2.095939 2.839551 -9.621765 -1.056097 -4.854882 -21.205813 0.841165 41.962124 -142.471012 71.617450 171.001121 0.000000 0.000000 0.000000 
